<?xml version="1.0" encoding="UTF-8"?>
<!-- Generator: Adobe Illustrator 22.1.0, SVG Export Plug-In . SVG Version: 6.00 Build 0)  -->
<svg version="1.1" id="Layer_1" xmlns="http://www.w3.org/2000/svg" xmlns:xlink="http://www.w3.org/1999/xlink" x="0px" y="0px" viewBox="0 0 257.5 57.4" style="enable-background:new 0 0 257.5 57.4;" xml:space="preserve">
<style type="text/css">
	.st0{fill:#FFFFFF;}
	.st1{opacity:0.5;enable-background:new    ;}
</style>
<g>
	<g id="Post-logo---Admin-dashboard_2_" transform="translate(-1.000000, 0.000000)">
		<path id="Washington-Post-Admin-Dashboard-Logo_2_" class="st0" d="M215.3,31.5c-0.6-0.8-1.4-1.5-2.3-1.8v8h-0.1l-2-2l-4.3,4.1    h-0.1V29.6c-1.3,0.3-2.7,1.1-3.8,2.5l-0.3-0.2c0.3-2.9,1.7-5.1,4.1-6v-7.5h-0.8c-1.1,0-1.8,0.8-2,1.6h-0.4    c-0.1-0.3-0.3-0.8-0.3-1.8c0-1.9,1.2-3.3,3.2-3.3h0.2v-4l-1.3-1.2l-1,1.1l-0.5-0.5l4.1-4.4l3.5,3.3v3.7l1.1-1.2V7.4h0.7V11    l4.6-5.1l4.2,3.9v16.6L215.3,31.5z M212.3,12.5l-1.1,1.1v21.5l1.1,1V12.5z M217.1,11.6l-2.2-2.1l-2,2.1v13.9c1.7,0.2,3,0.8,4.1,2    l0,0L217.1,11.6L217.1,11.6z M235.1,16.2v10.6l-6.2,4.8l-4.5-3.6l-1,1.1l-0.5-0.5l1.2-1.3V17l6.5-4.9l4.2,3.4l1.1-1.1l0.5,0.5    L235.1,16.2z M231.1,17.3l-3.1-2.5l0,0v11.4l3.1,2.4V17.3z M244.2,19.1h3.5v8.2l-5.9,4.3c-0.8-0.9-1.9-1.6-3.3-1.6    c-1.1,0-2,0.5-2.9,1.5l-0.5-0.2l5.1-7.6h-3.1v-7.1l6.1-4.5c0.7,0.6,1.3,1,2.3,1c0.7,0,1.8-0.2,2.6-0.8l0.4,0.3L244.2,19.1z     M243.7,22.4H242l-4.1,6.1v0.1c0.8-0.6,1.6-1,2.8-1c1.1,0,2.3,0.5,3,1.5l0,0V22.4z M246.1,14.9c-0.8,0.6-1.3,0.9-2.5,0.9    c-0.7,0-1.6-0.3-2.3-1.1h-0.1v5.6h1.4L246.1,14.9L246.1,14.9z M254.5,31.5l-3.2-2.6l-1,1l-0.5-0.5l1.1-1.2V15h-2.1l-0.1-0.1l1.3-2    h0.9v-2.6l3.9-4.3l0.1,0.1v6.8h3L258,13l-1.3,2H255v11.6l1.8,1.4l1.2-1.3l0.5,0.5L254.5,31.5z M138.4,31.5l-3.2-3V17.3l-1.7-1.7    l-1.3,1.3v10l1.1,1.1v0.2l-3,3.3l-3.4-3.2v-0.1l1.3-1.5v-9.6l-1.5-1.4l-1.1,1.1l-0.5-0.5l3.8-4.2l3.4,3.1V16l3.5-3.9l3.2,3    l1.1-1.1l0.5,0.5l-1.5,1.4v10.7l1.4,1.4l1.2-1.3l0.4,0.5L138.4,31.5z M154.2,15.8v13c0,2,1.1,1.9,1.1,3.4c0,1.7-2.4,3.3-6.1,6.2    c-1.2-1.4-2.1-1.9-3.2-1.9c-1.2,0-2.7,0.5-4,1.4l-0.4-0.3l5.1-6.2l-3.3-2.7l-1.1,1.1l-0.5-0.5l1.3-1.4V17.3l7-5.2l3.8,3.1l1.1-1.1    l0.5,0.5L154.2,15.8z M151.4,31.8c-0.9-0.6-1.1-1.3-1.1-2.9v-0.6l-5.9,7.2l0,0c1.2-0.7,2.1-1.2,3.8-1.2c1.5,0,2.5,0.7,3.5,1.5    c0.7-0.6,1.2-1.2,1.2-2.2C152.9,32.9,152.3,32.4,151.4,31.8L151.4,31.8z M150.2,17.2l-3.1-2.5l-0.1,0.1v11.7l2.2,1.8l1-1.1    L150.2,17.2L150.2,17.2z M161.9,31.5l-3.2-2.6l-1,1l-0.5-0.5l1.1-1.2V15h-2.1l-0.1-0.1l1.3-2h0.9v-2.6l3.9-4.3l0.1,0.1v6.8h3    l0.1,0.1l-1.3,2h-1.7v11.6l1.8,1.4l1.2-1.3l0.5,0.5L161.9,31.5z M178,16.2v10.6l-6.2,4.8l-4.5-3.6l-1,1.1l-0.5-0.5l1.2-1.3V17    l6.5-4.9l4.2,3.4l1.1-1.1l0.5,0.5L178,16.2z M174,17.3l-3.1-2.5l0,0v11.4l3.1,2.4V17.3z M192.6,31.5l-3.2-3V17.3l-1.7-1.7    l-1.3,1.3v10l1.1,1.1v0.2l-3,3.3l-3.4-3.2v-0.1l1.3-1.5v-9.6l-1.5-1.4l-1.1,1.1l-0.5-0.5l3.8-4.2l3.4,3.1V16l3.5-3.9l3.2,3    l1.1-1.1l0.5,0.5l-1.3,1.3v10.7l1.4,1.4l1.2-1.3l0.4,0.5L192.6,31.5z M87,31.5l-3.5-3.3h-0.1l-3.1,3.3l-3.7-3.4L75.8,29l-0.5-0.5    l1.1-1.1V17.3l7-5.2l3.8,3.1l1-1.1l0.6,0.5l-1.3,1.3v10.4l1.7,1.6l1.1-1.1l0.6,0.5L87,31.5z M83.6,17.2l-3.1-2.5l-0.1,0.1V26    l2.3,2.1l0.9-0.9C83.6,27.2,83.6,17.2,83.6,17.2z M98.6,19.1h3.5v8.2l-5.9,4.3C95.4,30.7,94.3,30,93,30c-1.1,0-2,0.5-2.9,1.5    l-0.5-0.2l5.1-7.6h-3.1v-7.1l6.1-4.5c0.7,0.6,1.3,1,2.3,1c0.7,0,1.8-0.2,2.6-0.8l0.4,0.3L98.6,19.1z M98,22.4h-1.7l-4.1,6.1v0.1    c0.8-0.6,1.6-1,2.8-1c1.1,0,2.3,0.5,3,1.5l0,0C98,29.1,98,22.4,98,22.4z M100.4,14.9c-0.8,0.6-1.3,0.9-2.5,0.9    c-0.7,0-1.6-0.3-2.3-1.1h-0.1v5.6h1.4L100.4,14.9L100.4,14.9z M115.2,15.8v13.1c0,3.7-3.1,6.2-6.6,6.9l-0.2-0.4    c1.7-0.9,2.9-2.4,2.9-4.4V17.4l-1.8-1.7l-1,1v10.4l1.1,1.1v0.2l-3,3.3l-3.4-3.2v-0.2l1.3-1.5v-17l3.9-4.3h0.1v10.2l3.2-3.5l3.2,3    l1-1l0.5,0.5L115.2,15.8z M122.4,31.5l-3.1-2.9l-1,1.1l-0.5-0.5l1.2-1.3V17l-1.3-1.3l-1,1l-0.5-0.5l3.7-4.1l2.8,2.6l1-1.1l0.5,0.5    l-1.3,1.3v10.9l1.6,1.5l1.1-1.2l0.5,0.5L122.4,31.5z M121.3,11.8l-3-2.9l2.8-3l3,2.9L121.3,11.8z M67.5,31.5l-5.1-4.6l-3.9,4.6    l-5.3-4.7v-7.5h-1c-0.9,0-1.4,0.6-1.5,1.3h-0.4c-0.1-0.3-0.2-0.8-0.2-1.5c0-1,0.4-3.6,3.1-3.6V9.8c0-2.3-1.4-2.4-1.4-4.3    c0-2.2,2-4.2,5.6-5.5l0.3,0.3c-1.2,0.6-2.2,1.4-2.2,3c0,2.5,2.4,1.9,2.4,5.9v1.5l4.3-4.8l4.5,4.6L71,5.9l4.1,4.2v14.1L67.5,31.5z     M62.2,12.4l-2.6-2.6l-1.7,1.8v13.1l3.1,2.8l1.1-1.3V12.4H62.2z M70.5,11.9l-2.1-2.1l-1.6,1.6v13.2l3.6,3.3l0,0L70.5,11.9    L70.5,11.9z M15.6,12.1v14c1.7-1.1,2.6-2.6,3.2-4.6l0.4,0.2c-0.4,5-3.8,9.9-9,9.9S1,27.6,1,21.2c0-4.9,2.8-7.9,6.9-10.6    c-0.6-0.2-1-0.2-1.6-0.2c-2.7,0-4.2,1.9-4.2,3.8H1.6c0-0.3,0-0.5,0-0.8c0-3.5,2-7.5,6.2-7.5c2.7,0,4.8,2.6,7.9,2.6    c1.6,0,2.5-0.6,3.1-2h0.4C19.3,8.9,18.6,11.3,15.6,12.1L15.6,12.1z M8.5,10.9c-1.9,2-3.7,4.2-3.7,8.5c0,2.4,0.7,4.7,2.4,6.3    L8.3,25v-9.7L7.1,16l-0.4-0.6l5.5-3.2C11,11.8,9.8,11.3,8.5,10.9L8.5,10.9z M14.9,12.3c-0.3,0-0.6,0-0.8,0c-0.5,0-1,0-1.5-0.2    v11.3l-4.7,2.7c1,0.8,2.1,1.1,3.7,1.1c1.3,0,2.4-0.3,3.4-0.8L14.9,12.3L14.9,12.3z M31.1,15.8v13.1c0,3.7-3.1,6.2-6.6,6.9    l-0.2-0.4c1.7-0.9,2.9-2.4,2.9-4.4V17.4l-1.8-1.7l-1,1v10.4l1.1,1.1v0.2l-3,3.3l-3.4-3.2v-0.2l1.3-1.5v-17l3.9-4.3h0.1v10.2    l3.2-3.5l3.2,3l1-1l0.5,0.5L31.1,15.8z M37.2,23.6v1.7l3.3,2.7l2.6-2.8l0.5,0.5l-5.2,5.8l-4.7-3.9l-1,1.1l-0.4-0.5l1.1-1.2v-9.6    l7-5.3l3.9,6.2L37.2,23.6z M37.3,15L37.3,15l-0.1,7.7l3.2-2.4L37.3,15z"/>
	</g>
	<g class="st1">
		<path class="st0" d="M7.3,52.6c0-3.3,1.7-5.2,4.2-5.2c2.2,0,3.5,1.3,3.8,3.4l-2.3,0.4c-0.2-1.2-0.5-1.9-1.6-1.9    c-1.1,0-1.7,1-1.7,3.2c0,2.1,0.6,3.1,1.8,3.1c1,0,1.5-0.6,1.7-1.9l2.2,0.4c-0.5,2.2-1.8,3.4-4,3.4C9,57.4,7.3,55.5,7.3,52.6z"/>
		<path class="st0" d="M17.7,57.2v-9.7h2.4v7.8h4v1.8H17.7z"/>
		<path class="st0" d="M26.2,57.2v-9.7h2.4v9.7H26.2z"/>
		<path class="st0" d="M31.4,57.2v-9.7h6.8v1.8h-4.5v2H37v1.7h-3.2v2.3h4.5v1.8H31.4z"/>
		<path class="st0" d="M40.7,57.2v-9.7h2.4l3.1,5c0.3,0.4,0.5,0.9,0.5,0.9c0-0.2,0-0.5,0-1.3v-4.5h2v9.7h-2l-3.5-5.5    c-0.2-0.4-0.5-0.9-0.5-0.9c0,0.2,0,0.6,0,1v5.5H40.7z"/>
		<path class="st0" d="M53.1,57.2v-7.8h-2.5v-1.8h7.3v1.8h-2.5v7.8H53.1z"/>
		<path class="st0" d="M63.7,57.2l3.2-9.7h2.5l3.3,9.7h-2.5L69.4,55h-3l-0.7,2.2H63.7z M66.8,53.4h2l-1.1-3.2L66.8,53.4z"/>
		<path class="st0" d="M74.5,47.6h3.7c1.3,0,2.4,0.4,3.2,1.2c0.9,0.9,1.4,2.2,1.4,3.7c0,2.7-1.8,4.8-4.5,4.8h-3.8V47.6z M76.9,55.4    h1.2c1.3,0,2.2-1.1,2.2-3c0-1.8-0.9-3-2.2-3h-1.2V55.4z"/>
		<path class="st0" d="M85.2,57.2v-9.7h3.2l1.9,6l1.8-6h3.2v9.7h-2.2v-7.4l-2.2,7.4h-1.5L87,49.8v7.4H85.2z"/>
		<path class="st0" d="M98.2,57.2v-9.7h2.4v9.7H98.2z"/>
		<path class="st0" d="M103.5,57.2v-9.7h2.4l3.1,5c0.3,0.4,0.5,0.9,0.5,0.9c0-0.2,0-0.5,0-1.3v-4.5h2v9.7h-2l-3.5-5.5    c-0.2-0.4-0.5-0.9-0.5-0.9c0,0.2,0,0.6,0,1v5.5H103.5z"/>
		<path class="st0" d="M114.3,57.2v-9.7h2.4v9.7H114.3z"/>
		<path class="st0" d="M118.8,54.8l1.9-0.7c0.4,0.9,1,1.5,2.3,1.5c1,0,1.6-0.4,1.6-1c0-0.9-1.1-1.1-2.2-1.4c-1.5-0.4-3.2-0.9-3.2-3    c0-1.6,1.4-2.8,3.7-2.8c2,0,3.2,0.9,3.8,2.4l-2,0.6c-0.3-0.8-0.9-1.2-1.8-1.2c-0.8,0-1.3,0.3-1.3,0.9c0,0.9,0.9,1,2.3,1.3    c1.6,0.4,3.1,1,3.1,3c0,1.7-1.3,2.9-3.9,2.9C120.5,57.4,119.4,56.3,118.8,54.8z"/>
		<path class="st0" d="M130.9,57.2v-7.8h-2.5v-1.8h7.3v1.8h-2.5v7.8H130.9z"/>
		<path class="st0" d="M137.7,57.2v-9.7h4.6c2.1,0,3.3,1.1,3.3,2.8c0,1.3-0.6,2.1-1.7,2.5l1.8,4.4h-2.5l-1.6-3.9h-1.6v3.9H137.7z     M140.1,51.6h1.7c1,0,1.5-0.4,1.5-1.2c0-0.7-0.5-1.1-1.3-1.1h-1.8V51.6z"/>
		<path class="st0" d="M147.5,57.2l3.2-9.7h2.5l3.3,9.7h-2.5l-0.7-2.2h-3l-0.7,2.2H147.5z M150.6,53.4h2l-1.1-3.2L150.6,53.4z"/>
		<path class="st0" d="M159.1,57.2v-7.8h-2.5v-1.8h7.3v1.8h-2.5v7.8H159.1z"/>
		<path class="st0" d="M165.9,57.2v-9.7h2.4v9.7H165.9z"/>
		<path class="st0" d="M173.4,57.2l-3.2-9.7h2.5l1.8,5.7c0,0.1,0.3,0.8,0.3,1.2c0.1-0.3,0.3-1,0.3-1.2l1.7-5.7h2l-3.1,9.7H173.4z"/>
		<path class="st0" d="M180.9,57.2v-9.7h6.8v1.8h-4.5v2h3.2v1.7h-3.2v2.3h4.5v1.8H180.9z"/>
		<path class="st0" d="M195,57.2v-9.7h4.1c2.3,0,3.6,0.9,3.6,3c0,1.7-1.2,2.9-3.3,2.9h-2v3.8H195z M197.4,51.7h1.5    c0.8,0,1.3-0.4,1.3-1.2s-0.5-1.2-1.3-1.2h-1.5V51.7z"/>
		<path class="st0" d="M204.5,52.4c0-3,1.8-5,4.4-5c2.7,0,4.4,1.9,4.4,5c0,3-1.8,5-4.3,5C206.2,57.4,204.5,55.4,204.5,52.4z     M210.7,52.4c0-2-0.5-3.2-1.8-3.2c-1.3,0-1.8,1.2-1.8,3.2c0,2.2,0.7,3.2,1.9,3.2C210.1,55.6,210.7,54.5,210.7,52.4z"/>
		<path class="st0" d="M215.7,57.2v-9.7h4.6c2.1,0,3.3,1.1,3.3,2.8c0,1.3-0.6,2.1-1.7,2.5l1.8,4.4h-2.5l-1.6-3.9H218v3.9H215.7z     M218,51.6h1.7c1,0,1.5-0.4,1.5-1.2c0-0.7-0.5-1.1-1.3-1.1H218V51.6z"/>
		<path class="st0" d="M228,57.2v-7.8h-2.5v-1.8h7.3v1.8h-2.5v7.8H228z"/>
		<path class="st0" d="M232.9,57.2l3.2-9.7h2.5l3.3,9.7h-2.5l-0.7-2.2h-3l-0.7,2.2H232.9z M236.1,53.4h2l-1.1-3.2L236.1,53.4z"/>
		<path class="st0" d="M243.8,57.2v-9.7h2.4v7.8h4v1.8H243.8z"/>
	</g>
</g>
</svg>