<svg width="146" height="20" viewBox="0 0 146 20" fill="none" xmlns="http://www.w3.org/2000/svg">
<g clip-path="url(#clip0_566_23631)">
<path d="M10.8908 2.32031C10.8908 0.720313 9.39135 0.320312 8.20757 0.320312V0.560312C8.91784 0.560312 9.47027 0.800313 9.47027 1.36031C9.47027 1.68031 9.23351 2.16031 8.52324 2.16031C7.97081 2.16031 6.78703 1.84031 5.91892 1.52031C4.89297 1.12031 3.94595 0.800313 3.15676 0.800313C1.57838 0.800313 0.473514 2.00031 0.473514 3.36031C0.473514 4.56031 1.34162 4.96031 1.6573 5.12031L1.73622 4.96031C1.57838 4.80031 1.34162 4.64031 1.34162 4.16031C1.34162 3.84031 1.6573 3.28031 2.44649 3.28031C3.15676 3.28031 4.10378 3.60031 5.36649 4.00031C6.47135 4.32031 7.65513 4.56031 8.28649 4.64031V7.12031L7.1027 8.16031V8.24031L8.28649 9.28031V12.7203C7.65513 13.1203 6.94486 13.2003 6.31351 13.2003C5.12973 13.2003 4.10378 12.8803 3.23568 11.9203L6.47135 10.3203V4.80031L2.52541 6.56031C2.84108 5.52031 3.70919 4.80031 4.5773 4.32031L4.49838 4.08031C2.13081 4.72031 0 6.96031 0 9.68031C0 12.8803 2.60432 15.2803 5.52432 15.2803C8.68108 15.2803 10.733 12.7203 10.733 10.0803H10.5751C10.1016 11.1203 9.39135 12.0803 8.52324 12.5603V9.28031L9.78595 8.24031V8.16031L8.52324 7.12031V4.64031C9.70703 4.64031 10.8908 3.84031 10.8908 2.32031ZM4.02486 11.1203L3.07784 11.6003C2.52541 10.8803 2.20973 9.92031 2.20973 8.56031C2.20973 8.00031 2.20973 7.36031 2.36757 6.88031L4.02486 6.16031V11.1203V11.1203ZM12.3903 12.9603L11.3643 13.7603L11.5222 13.9203L11.9957 13.5203L13.7319 15.1203L16.0995 13.5203L16.0205 13.3603L15.3892 13.7603L14.6 12.9603V7.52031L15.2314 7.04031L16.573 8.16031V13.0403C16.573 16.0803 15.9416 16.5603 14.6 17.0403V17.2803C16.8097 17.3603 18.8616 16.6403 18.8616 12.7203V7.44031L19.5719 6.88031L19.4141 6.72031L18.7827 7.20031L16.8097 5.52031L14.6 7.20031V0.640313H14.4422L11.68 2.56031V2.72031C11.9957 2.88031 12.4692 3.04031 12.4692 3.92031L12.3903 12.9603V12.9603ZM26.8324 12.0803L24.8595 13.6003L22.8865 12.0003V11.0403L26.5957 8.48031V8.40031L24.7016 5.52031L20.5978 7.76031V13.0403L19.8086 13.6803L19.9665 13.8403L20.6768 13.2803L23.36 15.2803L26.9113 12.4003L26.8324 12.0803V12.0803ZM22.8865 10.7203V6.80031L23.0443 6.72031L24.7805 9.52031L22.8865 10.7203ZM41.9059 1.60031C41.9059 1.36031 41.827 1.12031 41.7481 0.880313H41.5903C41.3535 1.52031 41.0378 1.84031 40.2486 1.84031C39.5384 1.84031 39.0649 1.44031 38.7492 1.12031L36.4605 3.76031L36.6184 3.92031L37.4076 3.20031C37.8811 3.60031 38.2757 3.92031 39.3805 4.00031V10.6403L34.7243 2.56031C34.3297 1.92031 33.7773 1.04031 32.6724 1.04031C31.4097 1.04031 30.3049 2.16031 30.4627 3.92031H30.6995C30.7784 3.44031 31.0151 2.88031 31.5676 2.88031C31.9622 2.88031 32.3568 3.28031 32.5935 3.68031V6.32031C31.173 6.32031 30.2259 6.96031 30.2259 8.16031C30.2259 8.80031 30.5416 9.76031 31.4886 10.0003V9.84031C31.3308 9.68031 31.2519 9.52031 31.2519 9.28031C31.2519 8.88031 31.5676 8.56031 32.12 8.56031H32.5146V11.9203C30.8573 11.9203 29.5157 12.8803 29.5157 14.4803C29.5157 16.0003 30.7784 16.7203 32.1989 16.6403V16.4803C31.3308 16.4003 30.9362 16.0003 30.9362 15.4403C30.9362 14.7203 31.4097 14.4003 32.0411 14.4003C32.6724 14.4003 33.2249 14.8003 33.6195 15.2803L35.9081 12.7203L35.7503 12.5603L35.1978 13.2003C34.3297 12.4003 33.8562 12.1603 32.8303 12.0003V4.00031L39.1438 15.2003H39.6173V4.00031C40.8011 3.92031 41.9059 2.96031 41.9059 1.60031V1.60031ZM47.667 12.0803L45.6941 13.6003L43.7211 12.0003V11.0403L47.4303 8.48031V8.40031L45.5362 5.52031L41.4324 7.76031V13.0403L40.6432 13.6803L40.8011 13.8403L41.5113 13.2803L44.1946 15.2803L47.7459 12.4003L47.667 12.0803V12.0803ZM43.7211 10.7203V6.80031L43.8789 6.72031L45.6151 9.52031L43.7211 10.7203V10.7203ZM60.5308 6.40031L59.9784 6.80031L58.4789 5.52031L56.7427 7.12031L57.453 7.84031V13.8403L55.5589 12.6403V7.68031L56.1903 7.28031L54.3751 5.52031L52.6389 7.12031L53.3492 7.84031V13.6003L53.1124 13.7603L51.4551 12.5603V7.76031C51.4551 6.64031 50.9027 6.32031 50.2714 5.92031C49.7189 5.52031 49.4032 5.28031 49.4032 4.72031C49.4032 4.24031 49.8768 4.00031 50.1135 3.84031V3.68031C49.4822 3.68031 47.8249 4.32031 47.8249 5.84031C47.8249 6.64031 48.2195 6.96031 48.6141 7.36031C49.0086 7.76031 49.4032 8.08031 49.4032 8.80031V13.4403L48.5351 14.0803L48.693 14.2403L49.4822 13.6003L51.2973 15.2003L53.2703 13.8403L55.48 15.2003L59.6627 12.7203V7.36031L60.6886 6.56031L60.5308 6.40031V6.40031ZM75.2097 2.00031L74.4205 2.72031L72.6843 1.12031L70.08 3.04031V1.28031H69.8432L69.9222 14.2403C69.6854 14.2403 68.9751 14.0803 68.4227 13.9203L68.2649 3.12031C68.2649 2.32031 67.7124 1.20031 66.2919 1.20031C64.8713 1.20031 63.9243 2.32031 63.9243 3.44031H64.1611C64.24 2.96031 64.4768 2.56031 64.9503 2.56031C65.4238 2.56031 65.8184 2.88031 65.8184 3.92031V7.04031C64.3978 7.12031 63.5297 7.92031 63.5297 8.96031C63.5297 9.60031 63.8454 10.5603 64.7924 10.5603V10.4003C64.4768 10.2403 64.3978 10.0003 64.3978 9.84031C64.3978 9.36031 64.7924 9.20031 65.4238 9.20031H65.7395V14.1603C64.5557 14.5603 64.0822 15.4403 64.0822 16.4003C64.0822 17.7603 65.1081 18.7203 66.6865 18.7203C67.7913 18.7203 68.7384 18.5603 69.6854 18.3203C70.4746 18.1603 71.5005 17.9203 71.974 17.9203C72.6054 17.9203 72.8422 18.2403 72.8422 18.6403C72.8422 19.2003 72.6054 19.4403 72.2897 19.5203V19.6803C73.5524 19.4403 74.3416 18.6403 74.3416 17.4403C74.3416 16.2403 73.1578 15.5203 71.8951 15.5203C71.2638 15.5203 69.9222 15.7603 68.9751 15.9203C67.8703 16.1603 66.7654 16.3203 66.4497 16.3203C65.8973 16.3203 65.2659 16.0803 65.2659 15.2803C65.2659 14.6403 65.8184 14.0803 67.16 14.0803C67.8703 14.0803 68.7384 14.1603 69.6065 14.4003C70.5535 14.6403 71.4216 14.8803 72.2108 14.8803C73.3946 14.8803 74.4205 14.4803 74.4205 12.8003V2.96031L75.3676 2.16031L75.2097 2.00031V2.00031ZM71.974 6.88031C71.7373 7.12031 71.4216 7.36031 71.027 7.36031C70.6324 7.36031 70.2378 7.12031 70.08 6.88031V3.36031L70.8692 2.80031L71.974 3.84031V6.88031ZM71.974 9.28031C71.8162 9.12031 71.4216 8.88031 71.027 8.88031C70.6324 8.88031 70.2378 9.12031 70.08 9.28031V7.20031C70.2378 7.36031 70.6324 7.60031 71.027 7.60031C71.4216 7.60031 71.8162 7.36031 71.974 7.20031V9.28031ZM71.974 13.0403C71.974 13.6803 71.5795 14.3203 70.7113 14.3203H70.08V9.60031C70.2378 9.44031 70.6324 9.20031 71.027 9.20031C71.4216 9.20031 71.7373 9.44031 71.974 9.60031V13.0403V13.0403ZM82.7859 7.36031L80.2605 5.52031L76.3935 7.76031V12.9603L75.6043 13.6003L75.6832 13.7603L76.3146 13.2803L78.84 15.2003L82.7859 12.8003V7.36031V7.36031ZM78.5243 12.4003V6.64031L80.4973 8.08031V13.7603L78.5243 12.4003V12.4003ZM90.2832 5.68031H90.1254C89.8886 5.84031 89.6519 6.00031 89.4151 6.00031C89.0995 6.00031 88.7049 5.84031 88.547 5.60031H88.3892L87.0476 7.12031L85.7059 5.60031L83.3384 7.20031L83.4173 7.36031L84.0486 6.96031L84.8378 7.84031V12.8803L83.8119 13.6803L83.9697 13.8403L84.4432 13.4403L86.3373 15.0403L88.7838 13.3603L88.7049 13.2003L87.9946 13.6003L87.0476 12.8003V7.20031C87.4422 7.60031 87.9157 8.00031 88.4681 8.00031C89.573 8.08031 90.2043 6.96031 90.2832 5.68031V5.68031ZM99.7535 13.3603L97.0703 15.2003L93.44 9.60031L96.0443 5.52031H96.2022C96.5178 5.84031 96.9913 6.16031 97.5438 6.16031C98.0962 6.16031 98.4908 5.84031 98.7276 5.52031H98.8854C98.8065 7.12031 97.7016 8.08031 96.9124 8.08031C96.1232 8.08031 95.7286 7.68031 95.2551 7.44031L95.0184 7.84031L98.9643 13.7603L99.7535 13.2803V13.3603V13.3603ZM91.0724 12.9603L90.0465 13.7603L90.2043 13.9203L90.6778 13.5203L92.414 15.1203L94.7816 13.5203L94.6238 13.3603L93.9924 13.7603L93.2032 12.9603V0.640313H93.1243L90.2832 2.56031V2.72031C90.5989 2.88031 91.0724 2.96031 91.0724 3.92031V12.9603V12.9603ZM112.854 2.32031C112.854 0.720313 111.355 0.320312 110.171 0.320312V0.560312C110.881 0.560312 111.434 0.800313 111.434 1.36031C111.434 1.68031 111.197 2.16031 110.486 2.16031C109.934 2.16031 108.75 1.84031 107.882 1.52031C106.856 1.20031 105.909 0.880313 105.12 0.880313C103.542 0.880313 102.437 2.08031 102.437 3.44031C102.437 4.64031 103.305 5.04031 103.621 5.20031L103.699 5.04031C103.463 4.88031 103.226 4.72031 103.226 4.24031C103.226 3.92031 103.542 3.36031 104.331 3.36031C105.041 3.36031 105.988 3.68031 107.251 4.08031C108.356 4.40031 109.539 4.64031 110.171 4.72031V7.20031L108.987 8.24031V8.32031L110.171 9.36031V12.8003C109.539 13.2003 108.829 13.2803 108.198 13.2803C107.014 13.2803 105.988 12.9603 105.12 12.0003L108.356 10.4003V4.80031L104.41 6.56031C104.804 5.52031 105.672 4.80031 106.462 4.24031L106.383 4.08031C104.015 4.72031 101.884 6.88031 101.884 9.60031C101.884 12.8003 104.489 15.2003 107.409 15.2003C110.565 15.2003 112.617 12.6403 112.617 10.0003H112.459C111.986 11.0403 111.276 12.0003 110.408 12.4803V9.20031L111.67 8.16031V8.08031L110.486 7.04031V4.64031C111.67 4.64031 112.854 3.84031 112.854 2.32031V2.32031ZM105.988 11.1203L105.041 11.6003C104.489 10.8803 104.173 9.92031 104.173 8.56031C104.173 8.00031 104.252 7.36031 104.41 6.88031L106.067 6.16031L105.988 11.1203V11.1203ZM115.616 1.52031H115.537L113.959 2.88031V2.96031L115.301 4.48031H115.458L117.037 3.12031V3.04031L115.616 1.52031V1.52031ZM117.984 13.3603L117.352 13.7603L116.563 12.9603V7.44031L117.352 6.88031L117.195 6.72031L116.642 7.20031L115.222 5.52031L112.933 7.12031L113.091 7.36031L113.643 6.96031L114.354 7.84031V13.0403L113.328 13.8403L113.406 14.0003L113.959 13.6003L115.695 15.2003L118.063 13.6003L117.984 13.3603V13.3603ZM131.163 13.2803L130.611 13.6803L129.743 12.8803V7.44031L130.532 6.80031L130.374 6.64031L129.743 7.20031L127.928 5.52031L125.56 7.20031L123.745 5.52031L121.535 7.20031L120.115 5.52031L117.826 7.12031L117.905 7.36031L118.457 6.96031L119.246 7.84031V13.0403L118.615 13.6803L120.43 15.2003L122.166 13.6003L121.456 12.8803V7.44031L122.166 6.96031L123.35 8.08031V12.8803L122.719 13.5203L124.534 15.0403L126.27 13.4403L125.56 12.7203V7.44031L126.191 7.04031L127.454 8.16031V12.9603L126.902 13.5203L128.717 15.2003L131.163 13.5203V13.2803V13.2803ZM138.029 12.0803L136.056 13.6003L134.083 12.0003V11.0403L137.792 8.48031V8.40031L135.898 5.52031L131.795 7.76031V13.2003L134.557 15.2003L138.108 12.3203L138.029 12.0803V12.0803ZM134.083 10.7203V6.80031L134.241 6.72031L135.977 9.52031L134.083 10.7203V10.7203ZM145.211 10.0003L143.711 8.80031C144.737 7.92031 145.132 6.72031 145.132 5.92031V5.44031H144.974C144.816 5.84031 144.501 6.24031 143.869 6.24031C143.238 6.24031 142.843 5.92031 142.449 5.44031L138.897 7.44031V10.3203L140.239 11.3603C138.897 12.5603 138.661 13.3603 138.661 14.0003C138.661 14.8003 139.055 15.3603 139.686 15.6003L139.765 15.4403C139.608 15.2803 139.45 15.2003 139.45 14.8003C139.45 14.5603 139.765 14.1603 140.397 14.1603C141.186 14.1603 141.659 14.7203 141.896 14.9603L145.29 12.8803V10.0003H145.211V10.0003ZM144.343 7.60031C143.79 8.56031 142.606 9.52031 141.896 10.0003L141.028 9.28031V6.48031C141.344 7.28031 142.212 7.92031 143.08 7.92031C143.632 7.92031 143.948 7.84031 144.343 7.60031V7.60031ZM143.001 14.0003C142.606 13.1203 141.659 12.4803 140.712 12.4803C140.476 12.4803 139.844 12.4803 139.213 12.8803C139.608 12.2403 140.634 11.1203 141.975 10.3203L142.922 11.1203L143.001 14.0003V14.0003Z" fill="white"/>
</g>
<defs>
<clipPath id="clip0_566_23631">
<rect width="146" height="20" fill="white"/>
</clipPath>
</defs>
</svg>