<svg width="177" height="28" viewBox="0 0 177 28" fill="none" xmlns="http://www.w3.org/2000/svg">
<path d="M9.85311 8.62013V18.5247C11.1493 17.802 12.057 16.5437 12.4976 15.1248L12.6015 15.1786C12.316 18.7122 9.98261 22.2453 6.35264 22.2453C2.69662 22.2453 0 19.4349 0 14.9373C0 11.5647 2.1261 9.44963 4.84877 7.54894C4.45095 7.4412 4.04126 7.38722 3.62997 7.38835C1.76288 7.38835 0.673962 8.70004 0.673962 10.0386H0.518403C0.492349 9.85113 0.492349 9.66402 0.492349 9.47653C0.492349 7.09405 1.71115 4.20287 4.66716 4.20287C6.55993 4.20287 8.01207 5.99636 10.216 5.99636C11.0976 5.99636 12.1865 5.56796 12.6271 4.57747H12.7049C12.6792 6.31795 12.1608 8.11144 9.85311 8.62013V8.62013ZM11.2531 18.7656C9.95656 20.1841 8.55653 21.3889 6.74154 21.3889C3.37096 21.3889 0.77818 18.6584 0.77818 14.6964C0.77818 12.3677 1.71154 11.1098 2.74872 9.63713H2.64489C1.9966 10.3064 0.285447 11.9927 0.285447 14.857C0.285447 19.2474 2.95601 21.951 6.45648 21.951C8.8937 21.951 10.5531 20.2113 11.3053 18.7925L11.2531 18.7656V18.7656ZM12.2899 5.78275C11.8493 6.63915 10.916 7.73644 9.0232 7.73644C7.13044 7.73644 5.39323 6.39785 3.86331 6.39785C2.46289 6.39785 1.50387 7.36184 1.14064 8.08454L1.16669 8.13833C1.65943 7.62964 2.41117 7.12094 3.62997 7.12094C5.65224 7.12094 6.94882 8.40613 8.99715 8.40613C11.1754 8.40613 12.1604 6.93345 12.3421 5.80965L12.2899 5.78275V5.78275ZM5.08173 7.62964C3.75948 9.04853 2.54067 10.6011 2.54067 13.626C2.54067 15.2854 3.08513 16.9986 4.30393 18.0694L5.05568 17.6675V10.4939L4.35566 10.8685L4.22615 10.6007L7.85613 8.56594C6.87105 8.35233 5.98942 7.89744 5.08173 7.62964V7.62964ZM9.56766 8.67353C9.38605 8.70004 9.20482 8.70004 8.99715 8.70004C8.63431 8.70004 8.29713 8.67353 7.95996 8.59284V16.4092L4.56333 18.3107C5.26334 18.8459 6.11892 19.1671 7.20783 19.1671C8.08947 19.1671 8.86726 18.9796 9.56728 18.6584V8.67353H9.56766V8.67353ZM5.83386 10.039L5.34112 10.3333V17.5077L5.83386 17.2399V10.039V10.039ZM20.743 11.056V20.3181C20.743 22.8877 18.5391 24.6282 16.0759 25.1365L16.0241 25.0293C17.2429 24.4134 17.943 23.1555 17.943 21.8169V12.2336L16.5429 10.9223L15.9985 11.5378V19.0065L16.7763 19.7292V19.7829L14.6762 22.1385L12.265 19.8632V19.7561L13.1984 18.7387V6.90694L15.9467 3.88246L15.9985 3.90896V11.0829L18.2545 8.56673L20.6139 10.7621L21.0545 10.2799L21.2622 10.4678L20.743 11.056V11.056ZM13.4831 19.8095V19.7561L14.0275 19.1936V6.45165L13.4831 7.04104V18.9262L12.6532 19.7829V19.8364L14.6754 21.7101L15.0383 21.2817L13.4831 19.8095V19.8095ZM18.7725 11.8052L17.087 10.3064L16.7242 10.7079L18.228 12.1003V21.737C18.228 22.3794 18.0985 23.0483 17.8652 23.4233L17.8912 23.4502C18.5395 22.968 18.7729 22.2453 18.7729 21.3086V11.8052H18.7725V11.8052ZM24.8657 16.4365V17.8016L27.3807 19.836L28.8329 18.23L29.0405 18.444L25.67 22.1646L22.2473 19.3273L21.7289 19.8894L21.5212 19.6754L22.1178 19.033V12.2605L27.0183 8.56634L29.5854 12.8495L24.8657 16.4365V16.4365ZM22.9469 18.7925V11.9927L22.4025 12.3946V19.0603L25.6179 21.7639L26.0328 21.309L22.9469 18.7925V18.7925ZM24.9178 10.5473L24.8657 10.5742V16.0619L27.1734 14.3218L24.9178 10.5473ZM25.5918 10.0121L25.1251 10.3598L27.4072 14.1343L27.8738 13.7862L25.5918 10.0121V10.0121ZM46.4866 22.1381L42.8822 18.9258L40.1339 22.1381L36.4001 18.8186V13.5722H35.674C35.0257 13.5722 34.6889 14.0006 34.533 14.5089H34.4552C34.3725 14.1765 34.329 13.835 34.3257 13.4919C34.3257 12.7957 34.5073 10.9757 36.4001 10.9757V6.37135C36.4001 5.48806 35.389 5.13996 35.389 3.96197C35.389 2.43667 36.789 0.937487 39.3561 0L39.4599 0.0802995C38.5266 0.642792 38.0339 1.17799 38.0339 2.32908C38.0339 4.09607 39.6933 3.64077 39.6933 6.42475V7.49554L42.7271 4.20287L45.9164 7.44175L48.9242 4.20287L51.8281 7.14745V17.052L46.4866 22.1381V22.1381ZM37.23 18.3906V12.7427H35.7779C35.0257 12.7427 34.689 13.251 34.6368 13.7063L34.6625 13.7332C34.9219 13.4389 35.1813 13.2783 35.7775 13.2783H36.6848V18.6857L40.1075 21.7374L40.4964 21.2552L37.23 18.3906V18.3906ZM37.23 6.10355C37.23 5.00626 36.2967 4.63126 36.2967 3.93547C36.2967 2.97148 36.6595 2.16888 37.23 1.41928L37.1783 1.39278C36.4005 2.00867 35.6744 2.99917 35.6744 3.96237C35.6744 4.92635 36.6856 5.38125 36.6856 6.23804V10.9761H37.23V6.10355ZM42.701 8.78073L40.7305 6.79975L39.6933 7.89704V17.3732L42.0527 19.4345L42.701 18.6849V8.78073ZM43.5305 18.3372V8.40613L41.3267 6.15735L40.9117 6.58575L42.9861 8.64663V18.6315L46.4866 21.7635L46.9015 21.3616L43.5305 18.3372ZM48.5609 8.43263L46.9276 6.82625L45.9942 7.81674V17.3467L48.5353 19.6485L48.5609 19.622V8.43263V8.43263ZM49.3904 8.05804L47.4977 6.15735L47.1088 6.58575L48.846 8.29893V19.4883L49.3904 18.9527V8.05804V8.05804ZM60.408 22.1381L57.9447 19.836L55.7408 22.1381L53.0442 19.6754L52.6809 20.0769L52.4737 19.8629L52.9403 19.3542V12.1806L57.8152 8.53983L60.6156 10.7886L61.1084 10.253L61.316 10.4674L60.7455 11.0829V18.4982L62.1195 19.8095L62.5605 19.3277L62.7678 19.5152L60.408 22.1381V22.1381ZM53.7702 19.1671V11.9393L53.2258 12.3408V19.4349L55.7151 21.737L56.1301 21.3086L53.7702 19.1671V19.1671ZM57.9447 12.1268L55.8186 10.4136L55.7408 10.4674V18.2569L57.504 19.836L57.9447 19.3811V12.1268V12.1268ZM58.7746 19.408V11.7253L56.5707 9.87803L56.0523 10.2526L58.2301 12.0196V19.6754L60.4083 21.7097L60.7972 21.2813L58.7746 19.408V19.408ZM67.9533 13.4116H70.6239V19.1402L66.5012 22.1381C65.9567 21.4957 65.1786 21.0408 64.2195 21.0408C63.4417 21.0408 62.8191 21.3086 61.9896 22.0313L61.8601 21.9775L65.3866 16.6774H63.2084V11.6984L67.5388 8.59323C68.0572 9.02163 68.4461 9.26213 69.1204 9.26213C69.6392 9.26213 70.3909 9.15493 70.9615 8.67353L71.0653 8.72693L67.9533 13.4116V13.4116ZM65.0494 20.2644C64.2973 20.2644 63.7011 20.5321 63.1823 20.9067V20.9605C63.5973 20.773 64.0123 20.7196 64.4012 20.7196C64.9973 20.7196 65.9311 21.0143 66.5533 21.7639L67.1499 21.309C66.6568 20.7196 66.0606 20.2644 65.0494 20.2644V20.2644ZM67.8235 15.7672H66.3713L63.3375 20.2916L63.3636 20.345C64.1153 19.783 64.8414 19.4084 65.723 19.4084C66.5008 19.4084 67.3047 19.7829 67.7974 20.4253L67.8235 20.3988V15.7672ZM64.0379 15.7672V11.4579L63.4935 11.8594V16.3566H65.5935L66.0085 15.7676H64.0379V15.7672ZM69.4572 10.5204C68.9128 10.9223 68.6016 11.1363 67.6939 11.1363C67.1752 11.1363 66.5529 10.8954 66.0606 10.3598L66.0089 10.3867V14.2949H66.9939L69.4833 10.5469L69.4572 10.5204V10.5204ZM68.2127 10.2795C67.7461 10.2795 67.1499 10.039 66.7606 9.50343L66.1123 9.95832C66.605 10.5742 67.0717 10.8416 67.7974 10.8416C68.2641 10.8416 68.9384 10.7075 69.6384 10.0916L69.6641 10.0117C69.2239 10.1996 68.6794 10.2795 68.2127 10.2795V10.2795ZM68.6534 14.8843H66.9679L66.579 15.4464H68.1089V20.6393L68.6534 20.2378V14.8843ZM79.5693 11.056V20.3181C79.5693 22.8877 77.3654 24.6282 74.9022 25.1365L74.8504 25.0293C76.0692 24.4134 76.7693 23.1555 76.7693 21.8169V12.2336L75.3692 10.9223L74.8248 11.5378V19.0065L75.6026 19.7292V19.7829L73.5025 22.1385L71.0913 19.8632V19.7561L72.0247 18.7387V6.90694L74.773 3.88246L74.8248 3.90896V11.0829L77.0808 8.56673L79.4402 10.7621L79.8808 10.2799L80.0885 10.4678L79.5693 11.056V11.056ZM72.3094 19.8095V19.7561L72.8538 19.1936V6.45165L72.3094 7.04064V18.9258L71.4795 19.7826V19.836L73.5018 21.7097L73.8646 21.2813L72.3094 19.8095V19.8095ZM77.5988 11.8052L75.9133 10.3064L75.5505 10.7079L77.0543 12.1003V21.737C77.0543 22.3794 76.9248 23.0483 76.6915 23.4233L76.7175 23.4502C77.3658 22.968 77.5992 22.2453 77.5992 21.3086V11.8052H77.5988ZM84.2886 22.1381L82.0587 20.0235L81.5399 20.5855L81.3322 20.3712L81.9288 19.7023V11.9662L80.8399 10.8954L80.4249 11.3776L80.2172 11.1632L82.5506 8.53983L84.625 10.4674L85.1438 9.87842L85.3771 10.0659L84.7288 10.7886V18.6054L85.9737 19.8098L86.5442 19.194L86.7515 19.4084L84.2886 22.1381V22.1381ZM82.7587 19.5152V11.5378L81.4104 10.253L81.0475 10.6814L82.2142 11.8325V19.7829L84.2886 21.7101L84.6775 21.2817L82.7587 19.5152V19.5152ZM83.5365 8.32583L81.4104 6.31834L83.3552 4.17676L85.4813 6.18425L83.5365 8.32583ZM82.2142 5.88955L81.8253 6.29105L83.5104 7.92394L83.8993 7.46904L82.2142 5.88955V5.88955ZM95.2525 22.1381L92.9965 20.0235V12.2071L91.6221 10.9223L90.896 11.7253V18.9527L91.6999 19.7288V19.836L89.5738 22.1381L87.1622 19.8629V19.7826L88.096 18.7656V12.0196L86.8772 10.8685L86.3844 11.4306L86.1771 11.2166L88.5366 8.56634L90.896 10.7348V11.27L93.3593 8.56634L95.6666 10.7079L96.1854 10.1458L96.4188 10.3598L95.7965 11.0291V18.6849L96.9632 19.8091L97.5337 19.1667L97.741 19.3807L95.2525 22.1381V22.1381ZM88.4071 19.8095V19.7561C88.4071 19.8095 88.9259 19.2205 88.9259 19.2205V11.6177L87.4477 10.2257L87.0844 10.6272L88.381 11.8586V18.9254L87.5772 19.7822V19.8356L89.5738 21.7093L89.9884 21.2544L88.4071 19.8095V19.8095ZM93.826 19.5955V11.7522L92.2187 10.253L91.8037 10.7079L93.2815 12.073V19.8629L95.226 21.7366L95.641 21.2813L93.826 19.5955V19.5955ZM102.564 26.9565C101.709 25.9929 101.112 25.5914 100.309 25.5914C99.4529 25.5914 98.4675 25.9395 97.4563 26.5016L97.3786 26.4217L100.957 22.1385L98.4158 20.0507L97.923 20.5863L97.7157 20.3988L98.2859 19.7564V12.1806L103.212 8.53983L105.961 10.7886L106.428 10.253L106.635 10.4674L106.091 11.0829V20.2382C106.091 21.6302 106.842 21.5768 106.842 22.6203C106.842 23.8248 105.157 24.949 102.564 26.9565ZM99.1158 19.5417V11.9662L98.5713 12.3681V19.7829L101.138 21.9245L101.527 21.4423L99.1158 19.5417V19.5417ZM100.931 24.8956C100.075 24.8956 99.297 25.1634 98.5713 25.6717V25.7255C99.038 25.538 99.5564 25.2971 100.438 25.2971C101.242 25.2971 101.916 25.752 102.59 26.5554L103.109 26.127C102.46 25.3509 101.683 24.8956 100.931 24.8956ZM104.094 22.3256C103.446 21.8972 103.29 21.4423 103.29 20.2912V19.8091L98.9859 24.9486L99.0119 24.9751C99.8415 24.4668 100.594 24.0922 101.812 24.0922C102.85 24.0922 103.55 24.5202 104.353 25.2164C104.846 24.788 105.183 24.36 105.183 23.6907C105.183 23.1555 104.742 22.754 104.094 22.3256V22.3256ZM103.29 12.1268L101.138 10.3871L101.086 10.4405V18.6584L102.746 19.9969L103.29 19.3546V12.1268V12.1268ZM104.872 21.951C104.197 21.4154 104.12 20.9605 104.12 19.8095V11.6719L101.942 9.85152L101.449 10.1996L103.575 11.9393V20.1841C103.575 21.3351 103.627 21.6567 104.327 22.1381C104.95 22.5665 105.442 23.0214 105.442 23.6373C105.442 23.7975 105.416 24.0653 105.416 24.0653L105.442 24.0922C105.572 23.9581 105.727 23.7441 105.727 23.396C105.728 22.8074 105.442 22.4059 104.872 21.951V21.951ZM111.095 22.1381L108.709 20.211L108.217 20.773L108.009 20.5587L108.58 19.9163V10.5473H107.076L107.024 10.4939L107.931 9.10153H108.579V7.30844L111.328 4.28356L111.38 4.33736V9.10193H113.454L113.506 9.15573L112.598 10.5477H111.38V18.6588L112.806 19.7833L113.351 19.1675L113.558 19.3815L111.095 22.1381V22.1381ZM109.41 6.85315L108.865 7.46904V9.10193H109.41V6.85315ZM109.41 19.6489V10.5473H108.865V19.9701L111.069 21.737L111.458 21.3086L109.41 19.6489V19.6489ZM122.037 11.3238V18.819L117.655 22.165L114.361 19.5955L113.972 20.0504L113.765 19.836L114.232 19.3008V11.9662L118.822 8.56634L121.881 11.0295L122.373 10.4939L122.581 10.7079L122.037 11.3238V11.3238ZM115.062 19.0334V11.7253L114.517 12.1268V19.3277L117.629 21.7904L118.122 21.4158L115.062 19.0334V19.0334ZM119.237 12.2071L117.058 10.4401L117.033 10.467V18.444L119.237 20.1572V12.2071ZM120.066 11.7253L117.655 9.79773L117.163 10.1723L119.522 12.0461V20.3715L120.066 19.9435V11.7253ZM131.942 22.1381L129.686 20.0235V12.2071L128.311 10.9223L127.585 11.7253V18.9527L128.389 19.7288V19.836L126.263 22.1381L123.852 19.8629V19.7826L124.785 18.7656V12.0196L123.567 10.8685L123.074 11.4306L122.867 11.2166L125.226 8.56634L127.585 10.7348V11.27L130.049 8.56634L132.356 10.7079L132.875 10.1458L133.108 10.3598L132.486 11.0291V18.6849L133.653 19.8091L134.223 19.1667L134.43 19.3807L131.942 22.1381V22.1381ZM125.096 19.8095V19.7561C125.096 19.8095 125.615 19.2205 125.615 19.2205V11.6177L124.137 10.2257L123.774 10.6272L125.071 11.8586V18.9254L124.267 19.7822V19.8356L126.264 21.7093L126.678 21.2544L125.096 19.8095V19.8095ZM130.515 19.5955V11.7522L128.908 10.253L128.493 10.7079L129.971 12.073V19.8629L131.915 21.7366L132.33 21.2813L130.515 19.5955V19.5955ZM147.96 22.1381C147.234 21.3351 146.975 21.0673 146.119 20.8264V26.0732L146.067 26.0997L145.03 25.1357L142.022 28L141.97 27.9735V20.773C141.062 20.987 140.103 21.4692 139.169 22.4324L139.117 22.4059C139.299 20.3447 140.284 18.819 141.969 18.23V13.0101H141.425C140.673 13.0101 140.258 13.4116 139.895 14.1343H139.818C139.74 13.8938 139.688 13.5184 139.688 12.9033C139.688 11.7787 140.491 10.6011 141.814 10.6011H141.969V7.70994L140.906 6.71945L140.388 7.25504L140.206 7.06754L142.825 4.20326L145.262 6.50545V8.94133L145.833 8.29893V5.22026H146.118V8.03114L149.566 4.20287L152.496 6.96034V18.605L147.96 22.1381V22.1381ZM141.97 19.7826C140.908 19.9966 140.156 20.6658 139.663 21.5491L139.689 21.6029C140.415 20.9605 141.089 20.6662 141.97 20.4518V19.7826V19.7826ZM142.8 12.1003H141.374C140.389 12.1003 140 12.7427 139.974 13.4923L140 13.5188C140.311 12.9832 140.622 12.7961 141.244 12.7162H142.256V27.305L142.8 26.7694V12.1003V12.1003ZM142.8 7.28154L141.504 6.05055L141.089 6.50545L142.256 7.57584V10.6007H142.8V7.28154V7.28154ZM145.834 8.80723L145.264 9.42313V24.9225L145.834 25.4581V8.80723V8.80723ZM149.231 8.19174L147.701 6.74634L146.119 8.51333V17.9357C147.468 18.0698 148.401 18.4713 149.205 19.3811L149.231 19.3546V8.19174V8.19174ZM146.119 19.7826V20.4787C147.001 20.6927 147.364 20.9605 147.986 21.7097L148.582 21.2279C147.96 20.425 147.338 19.9435 146.119 19.7826V19.7826ZM150.06 7.76374L148.297 6.07705L147.882 6.53195L149.516 8.08454V20.5321L150.06 20.1038V7.76374V7.76374ZM161.547 11.3238V18.819L157.164 22.165L153.871 19.5955L153.482 20.0504L153.275 19.836L153.742 19.3008V11.9662L158.331 8.56634L161.391 11.0295L161.883 10.4939L162.091 10.7079L161.547 11.3238V11.3238ZM154.572 19.0334V11.7253L154.027 12.1268V19.3277L157.139 21.7904L157.631 21.4158L154.572 19.0334V19.0334ZM158.746 12.2071L156.568 10.4401L156.542 10.467V18.444L158.746 20.1572V12.2071ZM159.576 11.7253L157.165 9.79773L156.672 10.1723L159.032 12.0461V20.3715L159.576 19.9435V11.7253ZM167.562 13.4116H170.233V19.1402L166.11 22.1381C165.566 21.4957 164.788 21.0408 163.828 21.0408C163.051 21.0408 162.428 21.3086 161.598 22.0313L161.469 21.9775L164.995 16.6774H162.817V11.6984L167.147 8.59323C167.666 9.02163 168.055 9.26213 168.729 9.26213C169.248 9.26213 169.999 9.15493 170.57 8.67353L170.674 8.72693L167.562 13.4116ZM164.658 20.2644C163.906 20.2644 163.31 20.5321 162.791 20.9067V20.9605C163.206 20.773 163.621 20.7196 164.01 20.7196C164.607 20.7196 165.54 21.0143 166.162 21.7639L166.758 21.309C166.266 20.7196 165.669 20.2644 164.658 20.2644V20.2644ZM167.433 15.7672H165.981L162.947 20.2916L162.973 20.345C163.725 19.783 164.451 19.4084 165.332 19.4084C166.11 19.4084 166.914 19.7829 167.407 20.4253L167.432 20.3988V15.7672H167.433ZM163.647 15.7672V11.4579L163.102 11.8594V16.3566H165.202L165.617 15.7676H163.647V15.7672ZM169.066 10.5204C168.521 10.9223 168.211 11.1363 167.302 11.1363C166.784 11.1363 166.161 10.8954 165.669 10.3598L165.617 10.3867V14.2949H166.602L169.091 10.5469L169.066 10.5204V10.5204ZM167.821 10.2795C167.355 10.2795 166.758 10.039 166.369 9.50343L165.721 9.95832C166.214 10.5742 166.681 10.8416 167.407 10.8416C167.873 10.8416 168.548 10.7075 169.248 10.0916L169.273 10.0117C168.833 10.1996 168.288 10.2795 167.821 10.2795V10.2795ZM168.262 14.8843H166.577L166.188 15.4464H167.718V20.6393L168.262 20.2378V14.8843ZM174.537 22.1381L172.152 20.211L171.659 20.773L171.452 20.5587L172.022 19.9163V10.5473H170.518L170.466 10.4939L171.373 9.10153H172.021V7.30844L174.77 4.28356L174.822 4.33736V9.10193H176.896L176.948 9.15573L176.041 10.5477H174.822V18.6588L176.248 19.7833L176.793 19.1675L177 19.3815L174.537 22.1381V22.1381ZM172.852 6.85315L172.307 7.46904V9.10193H172.852V6.85315ZM172.852 19.6489V10.5473H172.307V19.9701L174.511 21.737L174.9 21.3086L172.852 19.6489Z" fill="white"/>
</svg>