<svg width="172" height="14" viewBox="0 0 172 14" fill="none" xmlns="http://www.w3.org/2000/svg">
<g clip-path="url(#clip0_566_23629)">
<path d="M171.083 12.0771C170.582 12.0771 170.165 12.4779 170.165 13.0187C170.165 13.5594 170.582 13.9601 171.083 13.9601C171.583 13.9601 172 13.5594 172 13.0187C172 12.4779 171.583 12.0771 171.083 12.0771ZM137.888 13.8997H142.099V13.5394L141.641 13.4392C141.224 13.3389 141.036 13.1187 141.036 12.5576V7.11022H142.016C142.621 7.11022 142.934 7.25037 142.975 8.47227L143.08 11.0358C143.163 13.3389 143.851 13.98 145.019 13.98C146.207 13.98 146.52 13.1988 146.52 12.0973V11.6365H146.082V11.9769C146.082 12.7182 145.978 13.2389 145.686 13.2389C145.415 13.2389 145.394 13.0387 145.331 12.1173L145.207 10.355C145.04 7.99148 144.727 7.17032 142.913 6.84962C144.643 6.40925 145.707 5.18734 145.707 3.44476C145.707 1.1815 143.851 0.0999872 142.079 0.0999872H134.969V0.460574L135.365 0.540614C136.115 0.700962 136.136 1.0815 136.136 2.70389V10.6752C136.136 12.4579 135.615 13.319 134.426 13.319C133.363 13.319 132.779 12.8182 132.779 10.8754V1.40193C132.779 0.841104 132.967 0.681023 133.425 0.580773L133.988 0.460574V0.0999872H129.631V0.460574L130.089 0.580773C130.506 0.700969 130.652 0.86131 130.652 1.42188V10.7353C130.652 12.8382 131.924 14 133.864 14C135.803 14 136.762 12.8382 136.762 10.6752V1.98272C136.762 0.901213 136.991 0.520667 137.908 0.520667C138.638 0.520667 138.951 0.76106 138.951 1.42188V12.5576C138.951 13.1187 138.764 13.319 138.346 13.4192L137.888 13.5394V13.8997V13.8997ZM165.87 1.42188C165.87 0.86131 166.058 0.681024 166.474 0.60072L167.037 0.48052V0.0999872H162.7V0.460574L163.159 0.580773C163.576 0.700969 163.764 0.86131 163.764 1.42188V12.6382C163.764 13.1788 163.535 13.4793 162.888 13.4793C162.137 13.4793 162.033 13.2389 161.762 12.0574L159.093 0.0600935H158.259L155.716 11.6766C155.423 12.9783 155.277 13.2791 154.714 13.4392L154.36 13.5394V13.8997H157.342V13.5394L156.904 13.4591C156.278 13.3389 156.112 13.0187 156.424 11.4963L157.926 4.06568L159.573 11.937C159.823 13.0786 159.802 13.299 158.905 13.4591L158.468 13.5394V13.8997H169.519V9.33333H169.123C168.914 11.4362 168.476 13.4192 166.704 13.4192H165.87V1.42188V1.42188ZM159.364 10.1744V9.63382H156.549L156.466 10.1744H159.364ZM147.729 1.66228V11.236C147.729 12.6781 147.729 13.3591 146.979 13.4793L146.604 13.5394V13.8997H149.668V13.5394C148.334 13.3591 148.334 12.9185 148.334 11.3562V2.26325L147.834 1.82263L152.942 13.8997H153.818V2.76399C153.818 1.12165 153.818 0.76106 154.652 0.540614L154.944 0.460574V0.0999872H151.795V0.460574L152.15 0.540614C153.213 0.720908 153.213 1.12166 153.213 2.6438V9.61361L153.422 9.55352L149.544 0.0999872H146.562V0.460574L146.854 0.540614C147.188 0.640864 147.375 1.00146 147.729 1.66228M141.036 0.580773H141.87C142.704 0.580773 143.476 1.10145 143.476 3.70536C143.476 6.3691 142.892 6.62944 141.724 6.62944H141.036V0.580773ZM127.15 6.86982C127.15 12.6579 126.649 13.4793 125.565 13.4793C124.481 13.4793 124.001 12.6579 124.001 6.90972C124.001 1.34184 124.522 0.540614 125.565 0.540614C126.649 0.540614 127.15 1.34184 127.15 6.86982ZM129.423 6.99002C129.423 3.16447 128.15 0 125.565 0C122.959 0 121.728 3.16447 121.728 6.99002C121.728 10.8355 123 14 125.565 14C128.213 14 129.423 10.8355 129.423 6.99002ZM120.498 1.42188C120.498 0.86131 120.644 0.681023 121.061 0.580773L121.52 0.460574V0.0999872H117.204V0.460574L117.725 0.580773C118.142 0.681023 118.371 0.821158 118.371 1.40193V11.0358C118.371 12.3776 118.246 13.4591 117.204 13.4591C116.536 13.4591 116.036 12.9584 116.057 12.598C116.119 11.9769 117.204 12.0173 117.287 11.0156C117.35 10.2946 116.87 9.99415 116.432 9.93431C115.786 9.85401 114.994 10.3747 114.972 11.4163C114.951 12.7581 115.869 13.98 117.433 13.98C119.164 13.98 120.498 12.8584 120.498 10.7151V1.42188V1.42188ZM50.8556 1.42188C50.8556 0.86131 51.0432 0.681024 51.4602 0.60072L52.0233 0.48052V0.0999872H47.6863V0.460574L48.145 0.580773C48.5619 0.700969 48.7496 0.86131 48.7496 1.42188V12.6382C48.7496 13.1788 48.5201 13.4793 47.8737 13.4793C47.1232 13.4793 46.9981 13.2389 46.727 12.0574L44.058 0.0600935H43.2242L40.6803 11.6766C40.3885 12.9783 40.2423 13.2791 39.6795 13.4392L39.3249 13.5394V13.8997H42.3067V13.5394L41.8688 13.4591C41.2434 13.3389 41.0764 13.0187 41.3893 11.4963L42.8906 4.02553L44.5378 11.937C44.767 13.0786 44.767 13.299 43.8706 13.4591L43.4326 13.5394V13.8997H54.5046V9.33333H54.1084C53.9 11.4362 53.462 13.4192 51.6897 13.4192H50.8556V1.42188V1.42188ZM108.905 0.580773H109.364C110.657 0.580773 111.094 2.56349 111.24 4.66666H111.636V0.0999872H104.067V4.66666H104.463C104.61 2.56349 105.048 0.580773 106.34 0.580773H106.799V12.5576C106.799 13.1187 106.611 13.319 106.194 13.4192L105.652 13.5394V13.8997H110.156V13.5394L109.509 13.3993C109.113 13.299 108.905 13.1788 108.905 12.5576V0.580773V0.580773ZM99.376 6.96982L100.022 6.99002C100.961 7.00998 101.231 7.35062 101.42 9.53383H101.815V3.96569H101.42C101.19 5.70828 100.94 6.44914 100.043 6.46934L99.376 6.4893V0.580786H100.815C102.42 0.580786 102.775 2.52361 103.004 4.66668H103.4V0.0999999H96.2067V0.460586L96.6654 0.580786C97.1446 0.700982 97.27 0.981526 97.27 1.44211V12.5576C97.27 13.1187 97.0826 13.319 96.6654 13.4192L96.2067 13.5394V13.8998H103.609V9.33334H103.212C102.962 11.4163 102.691 13.4192 100.815 13.4192H99.376V6.96982V6.96982ZM91.5151 6.96982L92.1615 6.99002C93.0997 7.00998 93.3707 7.35062 93.5584 9.53383H93.9546V3.96569H93.5584C93.3292 5.70828 93.0789 6.44914 92.1825 6.46934L91.5151 6.4893V0.580786H92.9538C94.5595 0.580786 94.9138 2.5635 95.1431 4.66668H95.5392V0.0999999H88.1373V0.460586L88.8045 0.580786C89.284 0.700982 89.4092 0.981526 89.4092 1.44211V12.5576C89.4092 13.1187 89.2215 13.319 88.8045 13.4192L88.3458 13.5394V13.8998H95.7477V9.33334H95.3518C95.1015 11.4163 94.8302 13.4192 92.9538 13.4192H91.5151V6.96982V6.96982ZM82.9452 0.580773H83.5709C84.4047 0.580773 85.1763 1.10145 85.1763 3.70536C85.1763 6.32895 84.5927 6.62944 83.425 6.62944H82.9452V0.580773ZM79.7967 13.8997H84.0088V13.5394L83.5498 13.4392C83.1329 13.3389 82.9452 13.1187 82.9452 12.5576V7.11022H83.7168C84.3214 7.11022 84.6342 7.35062 84.676 8.47227L84.7801 11.0358C84.8637 13.3389 85.5517 13.98 86.7194 13.98C87.9078 13.98 88.2204 13.1988 88.2204 12.0973V11.6365H87.7827V11.9769C87.7827 12.7182 87.6786 13.2389 87.3866 13.2389C87.1155 13.2389 87.0945 13.0387 87.0322 12.1173L86.9068 10.355C86.7401 7.93138 86.4065 7.17032 84.6134 6.84962C86.344 6.40925 87.4073 5.18734 87.4073 3.44476C87.4073 1.1815 85.5517 0.0999872 83.7793 0.0999872H79.7967V0.460574L80.2554 0.580773C80.6726 0.700969 80.8601 0.86131 80.8601 1.42188V12.5576C80.8601 13.1187 80.6726 13.319 80.2554 13.4192L79.7967 13.5394V13.8997V13.8997ZM76.6067 0.580773H77.0654C78.358 0.580773 78.7959 2.56349 78.9421 4.66666H79.338V0.0999872H71.7692V4.66666H72.1653C72.3112 2.56349 72.7492 0.580773 74.042 0.580773H74.5007V12.5576C74.5007 13.1187 74.3128 13.319 73.8961 13.4192L73.3538 13.5394V13.8997H77.7533V13.5394L77.2113 13.4192C76.6692 13.299 76.6067 12.8985 76.6067 12.5576V0.580773V0.580773ZM71.7899 10.3146C71.7899 6.20874 67.0986 5.12725 67.0986 2.14307C67.0986 1.50219 67.3489 0.540614 68.3912 0.540614C69.8925 0.540614 70.4556 2.4034 70.7058 4.66666H71.102V0.0999872H70.8517C70.7474 0.54062 70.5597 0.74112 70.2889 0.74112C69.8091 0.74112 69.5589 0.0199468 68.4122 0.0199468C66.6399 0.0199468 65.4304 1.44209 65.4304 3.30461C65.4304 6.68953 70.122 8.11143 70.122 11.236C70.122 12.6579 69.4337 13.4591 68.4955 13.4591C67.0986 13.4591 66.1811 11.8771 65.9309 9.33333H65.5347V13.8997H65.785C65.9935 13.2389 66.2645 13.1788 66.4937 13.1788C66.8901 13.1788 67.3071 13.98 68.5163 13.98C70.3722 13.98 71.7899 12.438 71.7899 10.3146M58.1326 1.42188C58.1326 0.86131 58.3203 0.681024 58.7372 0.60072L59.3003 0.48052V0.0999872H54.9633V0.460574L55.422 0.580773C55.839 0.700969 56.0266 0.86131 56.0266 1.42188V12.5576C56.0266 13.1187 55.839 13.319 55.422 13.4192L54.9633 13.5394V13.8997H61.7816V9.33333H61.3852C61.177 11.4362 60.739 13.4192 58.9667 13.4192H58.1326V1.42188V1.42188ZM44.329 10.1744V9.63382H41.5144L41.4308 10.1744H44.329ZM32.2774 13.9399H33.1322L35.0712 4.08589H34.7794L36.9061 13.9399H37.6569L40.2008 2.32336C40.4718 1.10145 40.6177 0.681016 41.1182 0.560561L41.5144 0.460574V0.0999872H38.5744V0.460574L39.0123 0.540614C39.6377 0.66081 39.7836 1.0214 39.4918 2.50339L37.8446 10.2946H38.0949L36.4266 2.08296C36.2597 1.30168 36.1556 0.66081 36.8438 0.540614L37.3023 0.460574V0.0999872H33.2781V0.460574L33.5492 0.520667C33.9664 0.620658 34.0289 0.861316 34.1956 1.62239L34.842 4.60656L34.7169 2.80388L33.2781 10.0944H33.4658L31.7768 2.08296C31.5891 1.26179 31.5266 0.640863 32.1938 0.520667L32.5069 0.460574V0.0999872H28.3991V0.460574L28.7953 0.560561C29.1704 0.660811 29.3791 0.841107 29.6294 1.94256L32.2774 13.9399V13.9399ZM21.1428 6.96982L21.7893 6.99002C22.7275 7.00998 22.9985 7.35062 23.1862 9.53383H23.5824V3.96569H23.1862C22.957 5.70828 22.7067 6.44914 21.81 6.46934L21.1428 6.4893V0.580786H22.5816C24.187 0.580786 24.5416 2.5635 24.7708 4.66668H25.167V0.0999999H17.9736V0.460586L18.4323 0.580786C18.9118 0.700982 19.0369 0.981526 19.0369 1.44211V12.5576C19.0369 13.1187 18.8492 13.319 18.4323 13.4192L17.9736 13.5394V13.8998H25.3757V9.33334H24.9793C24.7293 11.4163 24.4583 13.4192 22.5816 13.4192H21.1428V6.96982V6.96982ZM8.02754 13.8997H12.302V13.5394L11.8225 13.4392C11.4471 13.3591 11.1968 13.1187 11.1968 12.5576V7.09028H14.3453V12.5576C14.3453 13.1187 14.0953 13.3591 13.7199 13.4392L13.2404 13.5394V13.8997H17.5148V13.5394L17.0561 13.4192C16.6392 13.319 16.4512 13.0985 16.4512 12.538V1.42188C16.4512 0.86131 16.6392 0.681023 17.0561 0.580773L17.5148 0.460574V0.0999872H13.2404V0.460574L13.7199 0.580773C14.0743 0.681023 14.3453 0.821158 14.3453 1.40193V6.54938H11.1968V1.40193C11.1968 0.841104 11.4263 0.681023 11.8225 0.580773L12.302 0.460574V0.0999872H8.02754V0.460574L8.48626 0.580773C8.90346 0.700969 9.09088 0.86131 9.09088 1.42188V12.5576C9.09088 13.1187 8.90346 13.319 8.48626 13.4192L8.02754 13.5394V13.8997ZM4.83724 0.580773H5.29623C6.5888 0.580773 7.02676 2.56349 7.17266 4.66666H7.56882V0.0999872H0V4.66666H0.396159C0.542055 2.56349 0.980014 0.580773 2.27259 0.580773H2.73131V12.5576C2.73131 13.1187 2.54388 13.319 2.12669 13.4192L1.58463 13.5394V13.8997H6.08855V13.5394L5.44213 13.3993C5.04597 13.299 4.83724 13.1788 4.83724 12.5576V0.580773V0.580773Z" fill="white"/>
</g>
<defs>
<clipPath id="clip0_566_23629">
<rect width="172" height="14" fill="white"/>
</clipPath>
</defs>
</svg>